<svg width="600" height="400" viewBox="0 0 600 400" fill="none" xmlns="http://www.w3.org/2000/svg">
    <g id="triangles">
        <g id="dark__group">
            <path id="left" d="M352.5 187.01C362.5 192.783 362.5 207.217 352.5 212.99L172.5 316.913C162.5 322.687 150 315.47 150 303.923V96.0769C150 84.5299 162.5 77.3131 172.5 83.0866L352.5 187.01Z" fill-opacity="0.7"/>
            <path id="right" d="M502.5 187.01C512.5 192.783 512.5 207.217 502.5 212.99L322.5 316.913C312.5 322.687 300 315.47 300 303.923V96.0769C300 84.5299 312.5 77.3131 322.5 83.0866L502.5 187.01Z" fill-opacity="0.7"/>
        </g>
        <g id="light__group">
            <path id="center" d="M352.5 187.01C362.5 192.783 362.5 207.217 352.5 212.99L172.5 316.913C162.5 322.687 150 315.47 150 303.923L150 96.0769C150 84.5299 162.5 77.3131 172.5 83.0866L352.5 187.01Z" fill-opacity="0.7"/>
        </g>
    </g>
</svg>
